<?xml version="1.0" standalone="no"?>
<!DOCTYPE svg PUBLIC "-//W3C//DTD SVG 20010904//EN"
 "http://www.w3.org/TR/2001/REC-SVG-20010904/DTD/svg10.dtd">
<svg version="1.0" xmlns="http://www.w3.org/2000/svg"
 width="900.000000pt" height="498.000000pt" viewBox="0 0 900.000000 498.000000"
 preserveAspectRatio="xMidYMid meet">
<metadata>
Created by potrace 1.10, written by Peter Selinger 2001-2011
</metadata>
<g transform="translate(0.000000,498.000000) scale(0.100000,-0.100000)"
fill="#000000" stroke="none">
<path d="M4670 4460 c-30 -4 -120 -15 -200 -24 -80 -9 -158 -21 -175 -25 -16
-5 -73 -12 -125 -15 -52 -3 -111 -10 -130 -16 -19 -5 -62 -10 -95 -10 -33 0
-91 -7 -130 -15 -38 -8 -95 -15 -125 -16 -30 0 -80 -5 -110 -10 -30 -5 -99
-13 -152 -19 -54 -5 -131 -14 -170 -19 -68 -10 -197 -27 -293 -37 -59 -6 -278
-33 -375 -45 -153 -20 -125 1 -532 -399 -491 -482 -1218 -1212 -1218 -1222 0
-4 6 -8 13 -8 13 0 498 474 1214 1186 l393 391 53 6 c170 21 322 39 467 57 91
11 192 22 225 25 33 2 101 11 150 19 103 17 236 34 380 46 55 5 118 14 140 19
22 6 69 11 105 11 36 1 85 5 110 11 25 5 92 13 150 18 58 5 132 14 165 20 68
12 224 31 335 40 60 5 75 9 78 24 3 14 -4 17 -45 16 -26 -1 -73 -5 -103 -9z"/>
<path d="M4725 4351 c-11 -5 -66 -11 -123 -14 -57 -4 -118 -11 -135 -16 -18
-6 -84 -15 -147 -21 -63 -6 -158 -15 -210 -20 -52 -5 -117 -13 -145 -19 -27
-5 -115 -17 -195 -26 -237 -27 -373 -43 -590 -71 -113 -15 -232 -28 -265 -30
-33 -3 -87 -9 -120 -16 -33 -6 -78 -12 -99 -13 -102 -7 -173 -18 -196 -30 -32
-17 -1465 -1431 -1530 -1510 -14 -17 -13 -18 15 -11 17 4 59 13 95 20 106 22
312 66 350 76 19 4 71 16 115 25 44 9 107 23 140 30 33 8 79 16 102 19 85 12
110 37 80 81 -8 11 -21 41 -30 67 -14 43 -14 53 -1 91 26 78 240 298 394 407
184 129 265 178 425 257 72 35 138 68 147 74 10 5 24 9 32 9 7 0 19 7 26 15 7
8 20 15 29 15 9 0 29 7 45 15 15 8 33 15 38 15 6 0 24 6 41 14 30 13 74 27
232 75 197 59 540 105 642 86 42 -8 87 -56 115 -122 12 -29 28 -53 36 -53 11
0 133 88 152 110 3 3 64 50 135 105 72 54 157 120 190 147 58 48 80 64 215
170 36 28 67 52 69 54 8 7 -54 3 -74 -5z"/>
<path d="M3710 3853 c-129 -12 -228 -27 -262 -39 -23 -8 -53 -14 -68 -14 -15
0 -44 -7 -63 -15 -20 -8 -47 -15 -59 -15 -13 0 -36 -7 -52 -15 -15 -8 -38 -15
-50 -15 -12 0 -31 -7 -42 -15 -10 -8 -28 -15 -39 -15 -11 0 -38 -9 -60 -20
-22 -11 -44 -19 -48 -20 -25 -1 -370 -171 -465 -228 -297 -181 -585 -444 -581
-531 0 -9 9 -29 20 -46 10 -16 23 -39 28 -50 5 -11 41 -73 80 -138 39 -65 71
-120 71 -124 0 -3 12 -24 28 -47 15 -23 38 -63 52 -89 13 -26 29 -47 33 -47 5
0 58 46 117 103 240 230 556 429 900 566 30 12 64 26 75 30 40 16 91 33 120
40 17 4 39 13 50 18 28 15 157 53 178 53 9 0 25 4 35 10 18 10 31 13 264 63
81 18 152 37 158 43 9 9 1 33 -28 95 -22 46 -52 111 -67 144 -15 33 -43 92
-61 132 -19 40 -43 92 -53 116 -29 68 -43 77 -114 75 -34 0 -78 -3 -97 -5z"/>
<path d="M4200 3183 c-41 -8 -104 -21 -140 -29 -36 -8 -78 -14 -95 -14 -16 0
-41 -3 -53 -7 -69 -18 53 -23 580 -23 l577 0 15 -22 c14 -20 16 -82 16 -475 0
-296 4 -454 10 -458 6 -4 26 3 44 14 24 15 36 31 39 54 3 17 6 210 6 427 1
454 0 465 -68 518 l-43 32 -406 -1 c-315 -1 -424 -5 -482 -16z"/>
<path d="M7734 2950 c-11 -4 -56 -13 -100 -18 -131 -18 -265 -42 -284 -52 -10
-6 -36 -10 -58 -10 -21 0 -61 -7 -88 -15 -27 -8 -59 -15 -70 -15 -12 0 -44 -6
-70 -14 -48 -14 -102 -27 -194 -47 -25 -5 -52 -12 -60 -16 -8 -3 -37 -12 -65
-19 -27 -6 -72 -18 -100 -27 -91 -28 -160 -48 -190 -57 -16 -5 -75 -25 -130
-45 -55 -20 -113 -40 -130 -44 -16 -5 -56 -20 -89 -35 -32 -14 -63 -26 -68
-26 -9 0 -36 -11 -113 -45 -124 -55 -183 -82 -271 -125 -56 -28 -104 -50 -107
-50 -3 0 -54 -28 -114 -61 -59 -34 -133 -75 -163 -91 -30 -17 -78 -48 -107
-69 -29 -21 -55 -39 -59 -39 -3 0 -23 -13 -43 -29 -20 -15 -60 -44 -88 -64
-154 -108 -384 -338 -438 -440 -11 -20 -23 -37 -27 -37 -4 0 -23 -35 -43 -77
-20 -43 -41 -86 -46 -96 -68 -127 -68 -407 0 -531 71 -131 154 -217 299 -314
100 -67 270 -152 302 -152 7 0 24 -6 38 -14 35 -19 125 -46 151 -46 35 0 24
14 -31 39 -188 86 -387 246 -488 392 -73 105 -103 178 -120 292 -15 99 -3 231
29 322 50 144 158 303 306 450 112 113 132 130 248 219 114 87 345 236 366
236 5 0 13 6 19 13 17 20 371 194 502 246 68 27 96 39 135 57 17 7 42 16 58
20 15 3 30 10 33 15 3 5 12 9 21 9 8 0 29 6 46 14 65 29 410 140 562 181 33 9
83 22 110 30 80 22 137 36 188 45 26 5 62 13 80 19 33 10 119 28 262 56 44 9
108 23 142 31 34 7 79 14 100 15 21 0 47 4 57 8 18 7 18 8 -5 14 -32 9 -69 8
-95 -3z"/>
<path d="M1427 2564 c-4 -4 -7 -149 -7 -321 l0 -314 -40 -38 c-35 -34 -40 -43
-40 -84 0 -38 6 -53 32 -82 l31 -36 -11 -62 c-17 -87 -34 -223 -36 -281 l-1
-48 90 -2 90 -1 -2 40 c-1 50 -18 181 -34 279 l-13 74 32 36 c44 50 45 114 4
155 -15 15 -34 30 -42 33 -13 4 -16 53 -20 328 -5 307 -9 348 -33 324z"/>
<path d="M2318 2298 c-8 -7 -27 -29 -42 -49 l-26 -36 0 -302 c0 -185 4 -319
11 -345 7 -27 24 -57 45 -77 l35 -34 1021 -3 1020 -2 34 35 c19 20 34 41 34
46 0 5 -420 10 -1040 11 -912 3 -1042 5 -1050 18 -6 9 -10 168 -10 383 0 202
-4 367 -8 367 -5 0 -15 -6 -24 -12z"/>
<path d="M3526 1361 c-10 -11 -22 -34 -26 -53 -11 -40 -63 -189 -72 -203 -3
-5 -11 -26 -16 -45 -6 -19 -18 -53 -26 -75 -48 -126 -55 -149 -50 -156 3 -5
180 -9 395 -9 417 0 406 -1 380 48 -5 9 -24 58 -41 107 -18 50 -38 104 -45
120 -17 43 -35 95 -47 135 -5 19 -13 40 -18 45 -4 6 -10 24 -14 40 -16 64 -21
65 -221 65 -167 0 -183 -2 -199 -19z"/>
<path d="M2580 724 c-14 -10 -29 -22 -35 -29 -5 -6 -35 -29 -65 -50 -30 -21
-59 -42 -65 -46 -52 -42 -179 -139 -239 -183 -14 -10 -26 -23 -26 -27 0 -5
544 -9 1215 -9 668 0 1215 3 1215 8 0 11 -74 67 -84 64 -17 -6 -2075 -2 -2090
4 -35 14 -20 34 82 110 58 43 118 86 132 95 24 15 101 16 851 11 715 -4 826
-3 836 10 10 11 9 19 -3 36 l-15 22 -842 0 c-766 0 -845 -2 -867 -16z"/>
<path d="M5335 580 c-6 -10 1 -14 46 -24 39 -8 45 -35 15 -64 l-24 -25 -72 23
c-81 26 -95 20 -84 -34 13 -59 41 -91 116 -128 117 -57 136 -62 265 -66 113
-3 125 -1 165 21 84 47 70 143 -34 224 -20 15 -92 47 -151 67 -54 18 -232 22
-242 6z"/>
<path d="M2072 307 c-16 -19 7 -59 38 -67 42 -11 2713 -12 2730 -1 12 8 11 11
-5 16 -11 4 -42 18 -69 31 -49 24 -53 25 -420 31 l-372 6 -36 -31 -36 -32
-185 0 -186 0 -31 30 -31 30 -693 0 c-554 0 -696 -3 -704 -13z m349 -18 c16
-8 18 -13 8 -25 -8 -10 -35 -14 -99 -14 -49 0 -95 3 -104 6 -24 9 -19 32 7 37
46 9 169 7 188 -4z"/>
</g>
</svg>
