<?xml version="1.0" standalone="no"?>
<!DOCTYPE svg PUBLIC "-//W3C//DTD SVG 20010904//EN"
 "http://www.w3.org/TR/2001/REC-SVG-20010904/DTD/svg10.dtd">
<svg version="1.0" xmlns="http://www.w3.org/2000/svg"
 width="300.000000pt" height="166.000000pt" viewBox="0 0 300.000000 166.000000"
 preserveAspectRatio="xMidYMid meet">
<metadata>
Created by potrace 1.10, written by Peter Selinger 2001-2011
</metadata>
<g transform="translate(0.000000,166.000000) scale(0.100000,-0.100000)"
fill="#000000" stroke="none">
<path d="M1520 1489 c-30 -4 -81 -11 -113 -14 -32 -4 -68 -8 -79 -10 -11 -3
-129 -17 -262 -32 l-241 -27 -120 -115 c-226 -217 -427 -422 -421 -428 4 -4
127 113 274 259 l267 265 105 12 c58 7 119 14 135 17 49 7 535 64 545 64 6 0
10 5 10 10 0 11 -21 11 -100 -1z"/>
<path d="M1350 1430 c-124 -16 -247 -31 -275 -34 -27 -4 -66 -8 -85 -11 -19
-3 -62 -7 -95 -11 l-60 -6 -261 -256 c-229 -226 -289 -289 -255 -268 15 9 271
66 297 66 28 0 28 0 10 35 -19 35 -13 50 43 108 134 141 402 259 596 261 46 1
51 -1 66 -31 l16 -31 132 104 c73 57 125 103 115 103 -11 -1 -120 -14 -244
-29z m132 -39 c-15 -14 -37 -33 -48 -41 -12 -8 -33 -23 -47 -33 -25 -18 -26
-18 -56 4 -26 19 -38 21 -98 16 -37 -3 -79 -8 -93 -11 -60 -13 -80 -18 -87
-18 -5 0 -17 -7 -28 -14 -11 -8 -29 -14 -42 -14 -12 0 -25 -5 -28 -10 -4 -6
-10 -8 -15 -5 -5 3 -11 1 -15 -4 -3 -6 -33 -22 -65 -37 -33 -15 -60 -30 -60
-35 0 -4 -8 -10 -18 -13 -26 -9 -137 -105 -167 -146 -16 -21 -24 -44 -22 -57
2 -12 1 -26 -2 -31 -3 -6 -48 -19 -98 -29 -82 -17 -91 -18 -80 -4 18 24 302
308 378 377 l65 61 106 12 c58 6 110 11 115 10 4 -1 10 0 13 1 11 4 47 9 100
15 30 3 93 11 140 18 46 7 106 13 132 13 l47 1 -27 -26z"/>
<path d="M1150 1277 c-167 -44 -321 -119 -422 -202 -94 -78 -97 -87 -52 -165
21 -36 45 -79 54 -96 l16 -31 66 61 c116 108 299 196 483 232 50 10 91 19 93
20 1 0 -18 45 -43 98 l-45 97 -57 -2 c-32 -2 -74 -7 -93 -12z m167 -77 c17
-36 32 -68 32 -72 1 -3 -25 -14 -56 -23 -122 -35 -199 -60 -233 -76 -19 -10
-38 -15 -42 -12 -5 2 -8 0 -8 -5 0 -6 -17 -17 -39 -25 -37 -15 -157 -101 -195
-139 -10 -11 -22 -16 -26 -11 -22 25 -68 103 -58 97 7 -4 5 2 -4 13 -24 26
-23 35 7 61 14 12 25 27 25 33 0 6 7 8 16 5 8 -3 13 -2 10 2 -3 5 8 16 25 26
16 9 29 22 29 27 0 6 5 7 10 4 6 -3 10 -2 10 3 0 10 118 72 134 71 5 0 12 3
15 8 11 15 62 34 73 27 6 -4 8 -3 5 3 -4 6 25 17 71 26 165 36 160 37 199 -43z"/>
<path d="M1333 1056 c-34 -6 -64 -13 -66 -16 -3 -3 92 -5 211 -5 l217 0 3
-162 c2 -159 3 -163 22 -151 18 12 20 24 20 158 0 201 11 190 -188 189 -86 -1
-185 -7 -219 -13z"/>
<path d="M2789 1016 c-2 -2 -35 -6 -74 -10 -61 -5 -172 -21 -285 -42 -90 -16
-301 -78 -407 -120 -395 -156 -613 -373 -562 -559 15 -53 92 -131 164 -165 68
-33 194 -74 202 -67 2 3 -13 10 -34 17 -105 33 -224 130 -253 205 -19 50 -14
130 12 182 51 103 200 229 373 316 225 112 662 223 895 228 102 2 142 16 49
18 -42 0 -78 -1 -80 -3z m-1279 -591 c-16 -19 -7 -138 13 -169 17 -26 28 -56
21 -56 -2 0 -9 12 -14 26 -6 15 -14 22 -22 18 -7 -5 -9 -2 -6 7 3 8 0 23 -8
33 -22 30 1 185 23 162 3 -3 0 -12 -7 -21z"/>
<path d="M470 751 c0 -63 -4 -112 -10 -116 -13 -8 -13 -52 0 -60 6 -4 9 -14 6
-23 -2 -10 -8 -41 -11 -69 l-7 -53 37 0 36 0 -6 48 c-3 26 -8 57 -11 69 -2 12
0 25 6 28 14 9 12 55 -2 60 -10 4 -12 34 -10 115 3 95 2 110 -12 110 -14 0
-16 -16 -16 -109z m25 -152 c-10 -15 -25 -10 -19 6 4 8 10 12 15 9 5 -3 7 -10
4 -15z"/>
<path d="M768 764 c-25 -32 -26 -228 -2 -262 l15 -22 342 1 c321 2 367 6 367
30 0 5 -156 9 -350 9 l-349 0 -3 134 c-3 130 -4 133 -20 110z"/>
<path d="M1174 455 c-12 -29 -56 -152 -61 -167 -5 -17 6 -18 132 -18 157 0
144 -16 96 118 l-27 74 -68 2 c-38 0 -70 -3 -72 -9z m126 -25 c0 -19 2 -25 21
-62 33 -65 31 -68 -74 -68 -82 0 -94 2 -94 18 0 9 3 22 7 27 5 6 13 29 19 53
l12 42 54 0 c30 0 55 -4 55 -10z"/>
<path d="M788 192 c-43 -31 -78 -59 -78 -62 0 -3 187 -5 415 -5 228 0 415 2
415 5 0 3 -9 11 -20 18 -16 9 -104 12 -366 12 -191 -1 -348 1 -350 3 -3 2 14
17 36 32 l40 28 286 -2 c233 -2 285 0 282 11 -4 10 -65 13 -294 15 l-289 2
-77 -57z"/>
<path d="M1768 198 c-9 -5 -3 -8 15 -8 15 0 27 -4 27 -9 0 -17 -19 -22 -41
-11 -26 14 -33 8 -25 -23 12 -49 163 -81 192 -42 8 10 14 21 14 24 -1 9 -22
34 -42 49 -21 17 -123 31 -140 20z m137 -64 c0 -23 -46 -31 -89 -14 l-28 10
26 25 c25 23 29 24 59 12 20 -9 32 -20 32 -33z"/>
<path d="M690 95 c0 -13 63 -15 475 -17 261 -2 475 -1 475 2 0 25 -310 44
-325 20 -8 -13 -132 -13 -140 0 -4 6 -97 10 -246 10 -204 0 -239 -2 -239 -15z
m113 -2 c-13 -2 -33 -2 -45 0 -13 2 -3 4 22 4 25 0 35 -2 23 -4z"/>
</g>
</svg>
